<?xml version="1.0" standalone="no"?>
<!DOCTYPE svg PUBLIC "-//W3C//DTD SVG 20010904//EN"
 "http://www.w3.org/TR/2001/REC-SVG-20010904/DTD/svg10.dtd">
<svg version="1.0" xmlns="http://www.w3.org/2000/svg"
 width="1294.000000pt" height="1000.000000pt" viewBox="0 0 1294.000000 1000.000000"
 preserveAspectRatio="xMidYMid meet">

<g transform="translate(0.000000,1000.000000) scale(0.100000,-0.100000)"
fill="#ffbf00" stroke="none">
<path d="M6451 9554 c-133 -35 -246 -129 -302 -249 -24 -51 -33 -87 -40 -167
-5 -57 -16 -132 -25 -168 -51 -223 -295 -381 -525 -342 -90 16 -156 47 -244
118 -124 100 -209 129 -347 122 -73 -5 -99 -11 -163 -41 -104 -50 -185 -128
-233 -226 -37 -74 -37 -76 -37 -195 0 -115 2 -125 34 -201 46 -108 54 -237 22
-333 -86 -253 -333 -385 -586 -312 -150 44 -273 35 -389 -28 -166 -89 -270
-305 -238 -493 17 -98 60 -175 150 -272 93 -98 126 -150 148 -237 32 -126 5
-273 -71 -385 -78 -115 -197 -182 -365 -205 -248 -35 -417 -251 -396 -507 15
-191 125 -328 318 -401 110 -42 181 -92 239 -169 156 -206 116 -504 -89 -653
-33 -25 -84 -61 -111 -80 -28 -19 -69 -59 -90 -88 -169 -227 -88 -573 162
-697 88 -43 166 -57 272 -49 149 12 264 -28 371 -128 105 -98 163 -241 151
-373 -8 -90 -31 -154 -88 -240 -65 -100 -90 -164 -96 -250 -13 -170 68 -334
213 -431 149 -98 337 -100 507 -4 259 146 590 8 678 -282 18 -58 20 -84 15
-156 -19 -239 -19 -244 -1 -309 34 -126 124 -230 249 -289 194 -91 396 -56
537 95 137 146 162 169 208 194 179 98 399 66 551 -79 70 -67 101 -122 135
-244 31 -112 62 -173 118 -230 89 -93 204 -140 342 -140 142 0 249 45 342 142
63 67 85 109 118 229 34 121 65 176 135 243 122 116 288 161 445 121 87 -23
148 -60 216 -134 142 -151 163 -170 223 -200 127 -62 276 -61 411 3 87 42 147
93 195 168 55 84 74 166 66 275 -19 245 -19 240 3 310 63 209 240 343 451 343
91 0 156 -18 261 -73 36 -19 100 -43 142 -53 74 -17 80 -17 152 0 102 24 166
58 241 129 114 106 169 261 145 402 -14 80 -39 138 -91 214 -59 87 -81 153
-87 252 -7 106 17 194 75 285 50 77 109 128 202 172 74 36 74 36 250 42 143 5
184 10 227 27 153 60 259 203 285 381 28 194 -47 342 -240 469 -131 86 -199
188 -224 334 -29 165 52 357 191 453 22 15 84 45 137 67 53 21 121 57 151 79
95 73 159 193 169 323 21 256 -148 472 -396 507 -164 23 -280 86 -359 195 -57
80 -82 154 -88 256 -9 149 28 237 159 376 43 47 91 110 108 143 77 152 60 339
-45 486 l-33 46 -95 -154 c-53 -84 -251 -387 -440 -673 l-344 -520 29 -85 c55
-164 105 -382 135 -591 25 -176 25 -661 0 -839 -83 -591 -291 -1092 -651
-1564 -103 -137 -337 -381 -471 -494 -424 -356 -912 -595 -1435 -702 -252 -51
-379 -63 -665 -63 -286 0 -413 12 -665 63 -1016 208 -1884 911 -2309 1871
-195 442 -281 887 -268 1393 6 243 21 380 63 580 267 1273 1269 2266 2544
2520 302 60 707 77 1005 42 567 -68 1084 -269 1531 -596 64 -47 123 -89 130
-95 7 -5 15 -7 17 -5 2 3 176 263 387 579 l382 574 -49 49 c-30 31 -79 65
-129 90 -70 35 -93 41 -166 45 -142 9 -227 -20 -353 -121 -88 -71 -154 -102
-244 -118 -226 -39 -470 117 -524 334 -9 35 -20 111 -25 171 -8 85 -16 120
-41 172 -110 236 -406 333 -645 213 -83 -42 -152 -116 -205 -221 -96 -193
-241 -289 -436 -289 -195 0 -340 96 -436 289 -92 182 -238 274 -432 272 -34 0
-86 -7 -116 -15z"/>
<path d="M7200 7674 c-14 -2 -65 -9 -115 -15 -471 -57 -954 -265 -1342 -578
-112 -90 -320 -300 -408 -411 -582 -733 -741 -1720 -420 -2596 45 -123 177
-394 241 -494 405 -635 1026 -1066 1744 -1210 201 -40 326 -53 535 -53 209 0
334 13 535 53 1031 206 1854 1014 2084 2045 47 208 60 334 60 575 1 204 -14
399 -33 453 -5 12 -125 -163 -441 -640 -239 -362 -454 -694 -479 -738 -212
-380 -499 -655 -872 -835 -667 -322 -1442 -244 -2037 204 -580 438 -875 1177
-753 1886 96 551 402 1018 873 1327 242 159 548 268 852 304 124 15 420 6 534
-15 351 -65 655 -204 920 -420 46 -38 87 -64 92 -60 12 13 382 577 387 590 2
6 -31 38 -74 71 -371 285 -781 461 -1260 539 -93 15 -560 29 -623 18z"/>
</g>
</svg>
